<svg xmlns="http://www.w3.org/2000/svg" width="64" height="64" viewBox="0 0 64 64" fill="none">
	<rect width="64" height="64" rx="18" fill="#0B1018"/>
	<path d="M10 32C14.9 20.8 23.1 15 32 15C40.9 15 49.1 20.8 54 32C49.1 43.2 40.9 49 32 49C23.1 49 14.9 43.2 10 32Z" fill="#E8EDF7"/>
	<path d="M16 32C20 23.7 25.8 20 32 20C38.2 20 44 23.7 48 32C44 40.3 38.2 44 32 44C25.8 44 20 40.3 16 32Z" fill="#111826"/>
	<circle cx="32" cy="32" r="10" fill="#61C7FF"/>
	<circle cx="32" cy="32" r="5.5" fill="#0B1018"/>
	<circle cx="36.5" cy="27.5" r="2.5" fill="#F8FBFF"/>
	<path d="M51 13L53.1 17.9L58 20L53.1 22.1L51 27L48.9 22.1L44 20L48.9 17.9L51 13Z" fill="#FFE7A3"/>
</svg>